<svg width="21" height="12" viewBox="0 0 21 12" fill="none" xmlns="http://www.w3.org/2000/svg">
<path d="M16.4062 6.66683H4.59375C4.22625 6.66683 3.9375 6.3735 3.9375 6.00016C3.9375 5.62683 4.22625 5.3335 4.59375 5.3335H16.4062C16.7738 5.3335 17.0625 5.62683 17.0625 6.00016C17.0625 6.3735 16.7738 6.66683 16.4062 6.66683Z" fill="#55AA55"/>
<path d="M7.875 11.3332C7.78893 11.3342 7.7036 11.317 7.62448 11.2825C7.54537 11.2481 7.47422 11.1972 7.41563 11.1332L2.82188 6.4665C2.55937 6.19984 2.55937 5.7865 2.82188 5.51984L7.41563 0.866504C7.67813 0.599837 8.085 0.599837 8.3475 0.866504C8.61 1.13317 8.61 1.5465 8.3475 1.81317L4.21312 6.01317L8.3475 10.2132C8.61 10.4798 8.61 10.8932 8.3475 11.1598C8.21625 11.2932 8.04563 11.3598 7.88813 11.3598L7.875 11.3332Z" fill="#55AA55"/>
</svg>
