<svg width="16" height="12" viewBox="0 0 16 12" fill="none" xmlns="http://www.w3.org/2000/svg">
<path fill-rule="evenodd" clip-rule="evenodd" d="M6.7763 11.4417C6.65911 11.5588 6.50026 11.6245 6.33464 11.6245C6.16901 11.6245 6.01016 11.5588 5.89297 11.4417L0.892968 6.44173C0.775927 6.32454 0.710186 6.16569 0.710186 6.00006C0.710186 5.83444 0.775927 5.67558 0.892968 5.55839L5.89297 0.558393C5.95019 0.496987 6.01919 0.447736 6.09585 0.413576C6.17252 0.379416 6.25528 0.361049 6.3392 0.359568C6.42312 0.358088 6.50648 0.373524 6.5843 0.404958C6.66212 0.436392 6.73282 0.48318 6.79217 0.542529C6.85152 0.601878 6.8983 0.672573 6.92974 0.750397C6.96117 0.828219 6.97661 0.911576 6.97513 0.995496C6.97365 1.07941 6.95528 1.16218 6.92112 1.23884C6.88696 1.31551 6.83771 1.38451 6.7763 1.44173L2.84297 5.37506L14.668 5.37506C14.8337 5.37506 14.9927 5.44091 15.1099 5.55812C15.2271 5.67533 15.293 5.8343 15.293 6.00006C15.293 6.16582 15.2271 6.32479 15.1099 6.442C14.9927 6.55921 14.8337 6.62506 14.668 6.62506L2.84297 6.62506L6.7763 10.5584C6.89334 10.6756 6.95909 10.8344 6.95909 11.0001C6.95909 11.1657 6.89334 11.3245 6.7763 11.4417Z" fill="#667185"/>
</svg>
