<svg width="20" height="20" viewBox="0 0 20 20" fill="none" xmlns="http://www.w3.org/2000/svg">
<path d="M16.1982 4.81665H3.79818C3.24612 4.81819 2.71711 5.03818 2.32674 5.42854C1.93637 5.81891 1.71638 6.34792 1.71484 6.89998V13.1C1.71791 13.6516 1.93838 14.1797 2.32842 14.5697C2.71846 14.9598 3.24659 15.1803 3.79818 15.1833H16.1982C16.7502 15.1818 17.2792 14.9618 17.6696 14.5714C18.06 14.1811 18.28 13.652 18.2815 13.1V6.89998C18.2815 6.6264 18.2276 6.35549 18.1229 6.10273C18.0182 5.84996 17.8648 5.6203 17.6713 5.42684C17.4779 5.23339 17.2482 5.07993 16.9954 4.97523C16.7427 4.87054 16.4718 4.81665 16.1982 4.81665ZM2.54818 6.89998C2.54818 6.56846 2.67987 6.25052 2.91429 6.0161C3.14871 5.78168 3.46666 5.64998 3.79818 5.64998H5.03151C4.94092 6.27644 4.65013 6.85678 4.20255 7.30436C3.75498 7.75194 3.17463 8.04273 2.54818 8.13332V6.89998ZM3.79818 14.35C3.46733 14.3478 3.15066 14.2154 2.91671 13.9815C2.68276 13.7475 2.55036 13.4308 2.54818 13.1V11.8666C3.17463 11.9572 3.75498 12.248 4.20255 12.6956C4.65013 13.1432 4.94092 13.7235 5.03151 14.35H3.79818ZM17.4482 13.1C17.4482 13.4315 17.3165 13.7494 17.0821 13.9839C16.8476 14.2183 16.5297 14.35 16.1982 14.35H14.9648C15.0554 13.7235 15.3462 13.1432 15.7938 12.6956C16.2414 12.248 16.8217 11.9572 17.4482 11.8666V13.1ZM17.4482 11.025C16.5995 11.1213 15.8087 11.5026 15.2047 12.1066C14.6008 12.7105 14.2195 13.5014 14.1232 14.35H5.87318C5.77682 13.5014 5.39553 12.7105 4.79161 12.1066C4.18768 11.5026 3.39681 11.1213 2.54818 11.025V8.97498C3.39681 8.87863 4.18768 8.49734 4.79161 7.89341C5.39553 7.28949 5.77682 6.49861 5.87318 5.64998H14.1232C14.2195 6.49861 14.6008 7.28949 15.2047 7.89341C15.8087 8.49734 16.5995 8.87863 17.4482 8.97498V11.025ZM17.4482 8.13332C16.8217 8.04273 16.2414 7.75194 15.7938 7.30436C15.3462 6.85678 15.0554 6.27644 14.9648 5.64998H16.1982C16.5297 5.64998 16.8476 5.78168 17.0821 6.0161C17.3165 6.25052 17.4482 6.56846 17.4482 6.89998V8.13332Z" fill="#475367"/>
<path d="M10.0026 11.6651C10.9231 11.6651 11.6693 10.9189 11.6693 9.99845C11.6693 9.07798 10.9231 8.33179 10.0026 8.33179C9.08213 8.33179 8.33594 9.07798 8.33594 9.99845C8.33594 10.9189 9.08213 11.6651 10.0026 11.6651Z" fill="#475367"/>
</svg>
