<svg width="23" height="18" viewBox="0 0 23 18" fill="none" xmlns="http://www.w3.org/2000/svg">
<path d="M22.25 16.875H20.375V5.625H20.75C20.8495 5.625 20.9448 5.58549 21.0152 5.51517C21.0855 5.44484 21.125 5.34946 21.125 5.25C21.125 5.15054 21.0855 5.05516 21.0152 4.98483C20.9448 4.91451 20.8495 4.875 20.75 4.875H15.875V1.125H16.25C16.3495 1.125 16.4448 1.08549 16.5152 1.01516C16.5855 0.944839 16.625 0.849456 16.625 0.75C16.625 0.650544 16.5855 0.555161 16.5152 0.484835C16.4448 0.414509 16.3495 0.375 16.25 0.375H2.75C2.65054 0.375 2.55516 0.414509 2.48484 0.484835C2.41451 0.555161 2.375 0.650544 2.375 0.75C2.375 0.849456 2.41451 0.944839 2.48484 1.01516C2.55516 1.08549 2.65054 1.125 2.75 1.125H3.125V16.875H1.25C1.15054 16.875 1.05516 16.9145 0.984835 16.9848C0.914509 17.0552 0.875 17.1505 0.875 17.25C0.875 17.3495 0.914509 17.4448 0.984835 17.5152C1.05516 17.5855 1.15054 17.625 1.25 17.625H22.25C22.3495 17.625 22.4448 17.5855 22.5152 17.5152C22.5855 17.4448 22.625 17.3495 22.625 17.25C22.625 17.1505 22.5855 17.0552 22.5152 16.9848C22.4448 16.9145 22.3495 16.875 22.25 16.875ZM19.625 5.625V16.875H15.875V5.625H19.625ZM3.875 1.125H15.125V16.875H12.125V12C12.125 11.9005 12.0855 11.8052 12.0152 11.7348C11.9448 11.6645 11.8495 11.625 11.75 11.625H7.25C7.15054 11.625 7.05516 11.6645 6.98483 11.7348C6.91451 11.8052 6.875 11.9005 6.875 12V16.875H3.875V1.125ZM11.375 16.875H7.625V12.375H11.375V16.875ZM6.125 4.5C6.125 4.40054 6.16451 4.30516 6.23483 4.23483C6.30516 4.16451 6.40054 4.125 6.5 4.125H8C8.09946 4.125 8.19484 4.16451 8.26517 4.23483C8.33549 4.30516 8.375 4.40054 8.375 4.5C8.375 4.59946 8.33549 4.69484 8.26517 4.76517C8.19484 4.83549 8.09946 4.875 8 4.875H6.5C6.40054 4.875 6.30516 4.83549 6.23483 4.76517C6.16451 4.69484 6.125 4.59946 6.125 4.5ZM10.625 4.5C10.625 4.40054 10.6645 4.30516 10.7348 4.23483C10.8052 4.16451 10.9005 4.125 11 4.125H12.5C12.5995 4.125 12.6948 4.16451 12.7652 4.23483C12.8355 4.30516 12.875 4.40054 12.875 4.5C12.875 4.59946 12.8355 4.69484 12.7652 4.76517C12.6948 4.83549 12.5995 4.875 12.5 4.875H11C10.9005 4.875 10.8052 4.83549 10.7348 4.76517C10.6645 4.69484 10.625 4.59946 10.625 4.5ZM6.5 8.625C6.40054 8.625 6.30516 8.58549 6.23483 8.51517C6.16451 8.44484 6.125 8.34946 6.125 8.25C6.125 8.15054 6.16451 8.05516 6.23483 7.98483C6.30516 7.91451 6.40054 7.875 6.5 7.875H8C8.09946 7.875 8.19484 7.91451 8.26517 7.98483C8.33549 8.05516 8.375 8.15054 8.375 8.25C8.375 8.34946 8.33549 8.44484 8.26517 8.51517C8.19484 8.58549 8.09946 8.625 8 8.625H6.5ZM10.625 8.25C10.625 8.15054 10.6645 8.05516 10.7348 7.98483C10.8052 7.91451 10.9005 7.875 11 7.875H12.5C12.5995 7.875 12.6948 7.91451 12.7652 7.98483C12.8355 8.05516 12.875 8.15054 12.875 8.25C12.875 8.34946 12.8355 8.44484 12.7652 8.51517C12.6948 8.58549 12.5995 8.625 12.5 8.625H11C10.9005 8.625 10.8052 8.58549 10.7348 8.51517C10.6645 8.44484 10.625 8.34946 10.625 8.25Z" fill="#475367"/>
</svg>
