<svg width="14" height="14" viewBox="0 0 14 14" fill="none" xmlns="http://www.w3.org/2000/svg">
<path d="M13.1654 7.00009H4.9287M2.02136 7.00009H0.832031M2.02136 7.00009C2.02136 6.61464 2.17448 6.24498 2.44704 5.97243C2.71959 5.69988 3.08925 5.54676 3.4747 5.54676C3.86015 5.54676 4.22981 5.69988 4.50236 5.97243C4.77491 6.24498 4.92803 6.61464 4.92803 7.00009C4.92803 7.38554 4.77491 7.7552 4.50236 8.02775C4.22981 8.3003 3.86015 8.45342 3.4747 8.45342C3.08925 8.45342 2.71959 8.3003 2.44704 8.02775C2.17448 7.7552 2.02136 7.38554 2.02136 7.00009ZM13.1654 11.4048H9.33336M9.33336 11.4048C9.33336 11.7903 9.17988 12.1604 8.90726 12.433C8.63465 12.7056 8.2649 12.8588 7.87936 12.8588C7.49392 12.8588 7.12426 12.705 6.8517 12.4324C6.57915 12.1599 6.42603 11.7902 6.42603 11.4048M9.33336 11.4048C9.33336 11.0192 9.17988 10.6498 8.90726 10.3772C8.63465 10.1046 8.2649 9.95142 7.87936 9.95142C7.49392 9.95142 7.12426 10.1045 6.8517 10.3771C6.57915 10.6496 6.42603 11.0193 6.42603 11.4048M6.42603 11.4048H0.832031M13.1654 2.59542H11.0954M8.18803 2.59542H0.832031M8.18803 2.59542C8.18803 2.20998 8.34115 1.84031 8.6137 1.56776C8.88626 1.29521 9.25592 1.14209 9.64136 1.14209C9.83222 1.14209 10.0212 1.17968 10.1975 1.25272C10.3739 1.32576 10.5341 1.43281 10.669 1.56776C10.804 1.70272 10.911 1.86293 10.9841 2.03926C11.0571 2.21558 11.0947 2.40457 11.0947 2.59542C11.0947 2.78628 11.0571 2.97526 10.9841 3.15159C10.911 3.32792 10.804 3.48813 10.669 3.62308C10.5341 3.75804 10.3739 3.86509 10.1975 3.93813C10.0212 4.01117 9.83222 4.04876 9.64136 4.04876C9.25592 4.04876 8.88626 3.89564 8.6137 3.62308C8.34115 3.35053 8.18803 2.98087 8.18803 2.59542Z" stroke="#98A2B3" stroke-width="1.5" stroke-miterlimit="10" stroke-linecap="round"/>
</svg>
