<svg width="20" height="20" viewBox="0 0 20 20" fill="none" xmlns="http://www.w3.org/2000/svg">
<path d="M17.3564 2.64692C17.1131 2.40337 16.8242 2.21016 16.5061 2.07834C16.1881 1.94651 15.8472 1.87866 15.5029 1.87866C15.1587 1.87866 14.8178 1.94651 14.4997 2.07834C14.1817 2.21016 13.8928 2.40337 13.6494 2.64692L8.14943 8.14692C8.08522 8.21087 8.0396 8.29106 8.01743 8.37892L7.01743 12.3789C6.99659 12.4626 6.99776 12.5503 7.02082 12.6334C7.04389 12.7166 7.08807 12.7923 7.14906 12.8533C7.21006 12.9143 7.2858 12.9585 7.36893 12.9815C7.45205 13.0046 7.53972 13.0058 7.62343 12.9849L11.6234 11.9849C11.7115 11.9632 11.7921 11.9179 11.8564 11.8539L17.3564 6.35392C17.6 6.1106 17.7932 5.82166 17.925 5.50363C18.0568 5.18559 18.1247 4.8447 18.1247 4.50042C18.1247 4.15615 18.0568 3.81525 17.925 3.49722C17.7932 3.17918 17.6 2.89024 17.3564 2.64692ZM14.3564 3.35392C14.6605 3.04985 15.0729 2.87903 15.5029 2.87903C15.933 2.87903 16.3454 3.04985 16.6494 3.35392C16.9535 3.65799 17.1243 4.0704 17.1243 4.50042C17.1243 4.93044 16.9535 5.34285 16.6494 5.64692L11.2464 11.0489L8.18943 11.8129L8.95343 8.75592L14.3564 3.35392ZM10.0024 3.99992C10.2824 4.00059 10.5568 4.01926 10.8254 4.05592L11.6794 3.20192C10.195 2.83597 8.63152 2.96608 7.22798 3.57239C5.82444 4.17869 4.65799 5.22784 3.90688 6.55952C3.15577 7.8912 2.86131 9.43217 3.06848 10.947C3.27565 12.4618 3.97307 13.8671 5.05417 14.9482C6.13526 16.0293 7.54058 16.7267 9.05538 16.9339C10.5702 17.1411 12.1112 16.8466 13.4428 16.0955C14.7745 15.3444 15.8237 14.1779 16.43 12.7744C17.0363 11.3708 17.1664 9.80738 16.8004 8.32292L15.9464 9.17692C15.9838 9.44692 16.0024 9.72126 16.0024 9.99992C16.0024 11.1866 15.6505 12.3466 14.9913 13.3333C14.332 14.32 13.3949 15.0891 12.2985 15.5432C11.2022 15.9973 9.99578 16.1161 8.83189 15.8846C7.668 15.6531 6.59891 15.0817 5.75979 14.2426C4.92068 13.4034 4.34923 12.3344 4.11772 11.1705C3.88621 10.0066 4.00503 8.80018 4.45916 7.70382C4.91328 6.60747 5.68232 5.67039 6.66901 5.01111C7.65571 4.35182 8.81574 3.99992 10.0024 3.99992Z" fill="#475367"/>
</svg>
