<svg width="20" height="20" viewBox="0 0 20 20" fill="none" xmlns="http://www.w3.org/2000/svg">
<path d="M4.16406 4.1665H14.9974C15.6604 4.1665 16.2963 4.4299 16.7652 4.89874C17.234 5.36758 17.4974 6.00346 17.4974 6.6665V14.1665C17.4974 14.8295 17.234 15.4654 16.7652 15.9343C16.2963 16.4031 15.6604 16.6665 14.9974 16.6665H4.16406C3.50102 16.6665 2.86514 16.4031 2.3963 15.9343C1.92745 15.4654 1.66406 14.8295 1.66406 14.1665V6.6665C1.66406 6.00346 1.92745 5.36758 2.3963 4.89874C2.86514 4.4299 3.50102 4.1665 4.16406 4.1665ZM4.16406 4.99984C3.7474 4.99984 3.38073 5.1415 3.0974 5.3915L9.58073 9.58317L16.0641 5.3915C15.7807 5.1415 15.4141 4.99984 14.9974 4.99984H4.16406ZM9.58073 10.5915L2.60573 6.0665C2.53906 6.24984 2.4974 6.45817 2.4974 6.6665V14.1665C2.4974 14.6085 2.67299 15.0325 2.98555 15.345C3.29811 15.6576 3.72204 15.8332 4.16406 15.8332H14.9974C15.4394 15.8332 15.8633 15.6576 16.1759 15.345C16.4885 15.0325 16.6641 14.6085 16.6641 14.1665V6.6665C16.6641 6.45817 16.6224 6.24984 16.5557 6.0665L9.58073 10.5915Z" fill="#475367"/>
</svg>
