<svg width="17" height="16" viewBox="0 0 17 16" fill="none" xmlns="http://www.w3.org/2000/svg">
<path fill-rule="evenodd" clip-rule="evenodd" d="M2.78013 0.702584C3.79429 -0.305749 5.46429 -0.126582 6.31346 1.00842L7.36513 2.41175C8.05679 3.33508 7.99513 4.62508 7.17429 5.44092L6.97596 5.63925C6.95347 5.72251 6.95118 5.80993 6.96929 5.89425C7.02179 6.23425 7.30596 6.95425 8.49596 8.13758C9.68596 9.32092 10.411 9.60425 10.756 9.65758C10.8429 9.67507 10.9327 9.6725 11.0185 9.65008L11.3585 9.31175C12.0885 8.58675 13.2085 8.45092 14.1118 8.94175L15.7035 9.80842C17.0676 10.5484 17.4118 12.4018 16.2951 13.5126L15.111 14.6893C14.7376 15.0601 14.236 15.3693 13.6243 15.4268C12.116 15.5676 8.60179 15.3876 4.90763 11.7151C1.46013 8.28675 0.79846 5.29675 0.714293 3.82342C0.672627 3.07842 1.02429 2.44842 1.47263 2.00342L2.78013 0.702584ZM5.31346 1.75758C4.89096 1.19342 4.10429 1.14842 3.66096 1.58925L2.35263 2.88925C2.07763 3.16258 1.94596 3.46425 1.96263 3.75258C2.02929 4.92342 2.56263 7.62092 5.78929 10.8293C9.17429 14.1943 12.3001 14.2951 13.5085 14.1818C13.7551 14.1593 14.0001 14.0309 14.2293 13.8034L15.4126 12.6259C15.8943 12.1476 15.7885 11.2759 15.1068 10.9059L13.5151 10.0401C13.0751 9.80175 12.5601 9.88008 12.2401 10.1984L11.861 10.5759L11.4193 10.1326C11.861 10.5759 11.8601 10.5768 11.8593 10.5768L11.8585 10.5784L11.856 10.5809L11.8501 10.5859L11.8376 10.5976C11.8025 10.6302 11.7645 10.6598 11.7243 10.6859C11.6576 10.7301 11.5693 10.7793 11.4585 10.8201C11.2335 10.9043 10.9351 10.9493 10.5668 10.8926C9.84429 10.7818 8.88679 10.2893 7.61429 9.02425C6.34263 7.75925 5.84596 6.80758 5.73429 6.08592C5.67679 5.71759 5.72263 5.41925 5.80763 5.19425C5.85441 5.06764 5.92139 4.94944 6.00596 4.84425L6.03263 4.81508L6.04429 4.80258L6.04929 4.79758L6.05179 4.79508L6.05346 4.79342L6.29346 4.55508C6.65013 4.19925 6.70013 3.61008 6.36429 3.16092L5.31346 1.75758Z" fill="#475367"/>
</svg>
