<svg width="16" height="16" viewBox="0 0 16 16" fill="none" xmlns="http://www.w3.org/2000/svg">
<path d="M16 7.99886V7.99486C16 5.62752 14.9693 3.50152 13.3327 2.03953L13.3247 2.03286C13.3044 2.01108 13.2819 1.99163 13.2573 1.97486L13.256 1.97419C11.8023 0.698039 9.93304 -0.00406018 7.99867 -0.000474616C5.97733 -0.000474616 4.132 0.750192 2.72534 1.98886L2.734 1.98152C2.7171 1.99445 2.70147 2.00896 2.68734 2.02486C1.84172 2.77368 1.16485 3.69429 0.701566 4.72441C0.238279 5.75454 -0.00085559 6.87135 2.30009e-06 8.00086C2.30009e-06 10.3675 1.02934 12.4935 2.66467 13.9562L2.67267 13.9629C2.69394 13.9868 2.71762 14.0084 2.74334 14.0275L2.74467 14.0282C4.19789 15.3026 6.06579 16.0037 7.99867 16.0002C9.94058 16.0032 11.8165 15.2956 13.2727 14.0109L13.264 14.0182C14.1243 13.2702 14.8139 12.3462 15.2862 11.3086C15.7584 10.2711 16.0023 9.14418 16.0013 8.00419V7.99952L16 7.99886ZM13.0253 13.2022C12.6289 12.8818 12.2027 12.6001 11.7527 12.3609L11.7093 12.3395C12.118 11.1615 12.364 9.80352 12.3873 8.39086V8.38019H15.228C15.1325 10.2079 14.3458 11.9309 13.0273 13.2002L13.0253 13.2022ZM8.38133 12.1989C9.23667 12.2449 10.036 12.4329 10.7733 12.7389L10.7253 12.7215C10.1347 14.0682 9.30333 14.9935 8.38133 15.1969V12.1989ZM8.38133 11.4362V8.38019H11.6267C11.6008 9.64569 11.3814 10.8998 10.976 12.0989L11.002 12.0115C10.1745 11.6709 9.29405 11.4764 8.4 11.4369L8.382 11.4362H8.38133ZM8.38133 7.61752V4.56152C9.29946 4.51976 10.2034 4.31877 11.0527 3.96752L11 3.98686C11.37 5.06619 11.5973 6.31019 11.6267 7.60352V7.61752H8.38133ZM8.38133 3.79886V0.802192C9.30333 1.00553 10.1347 1.92686 10.7253 3.27752C10.036 3.56419 9.23667 3.75152 8.40067 3.79819L8.38133 3.79886ZM10.284 1.13219C11.0698 1.39371 11.8046 1.78884 12.456 2.30019L12.4407 2.28819C12.1453 2.52019 11.814 2.73886 11.4647 2.92886L11.4273 2.94752C11.1458 2.28096 10.7576 1.66468 10.278 1.12286L10.284 1.13019V1.13219ZM7.61733 0.804192V3.79886C6.79499 3.75696 5.98592 3.57431 5.22533 3.25886L5.27333 3.27619C5.86667 1.92952 6.69667 1.00486 7.61867 0.801525L7.61733 0.804192ZM4.572 2.94552C4.21071 2.75094 3.86639 2.52637 3.54267 2.27419L3.55867 2.28619C4.19111 1.78982 4.90292 1.40394 5.664 1.14486L5.71467 1.12953C5.2481 1.65701 4.86805 2.25509 4.58867 2.90152L4.572 2.94552ZM7.61867 4.56086V7.61686H4.37333C4.40267 6.30952 4.63 5.06552 5.026 3.89886L5 3.98619C5.82757 4.3252 6.70728 4.51936 7.60067 4.56019L7.61867 4.56086ZM7.61867 8.37952V11.4355C6.70054 11.4773 5.79665 11.6783 4.94733 12.0295L5 12.0102C4.63 10.9315 4.40267 9.68686 4.37333 8.39352V8.37952H7.61867ZM7.61867 12.1982V15.1949C6.69667 14.9915 5.86533 14.0702 5.27467 12.7195C5.964 12.4329 6.76334 12.2462 7.59933 12.1995L7.61867 12.1982ZM5.71867 14.8649C4.93359 14.6029 4.19902 14.2088 3.54667 13.6995L3.56267 13.7115C3.858 13.4795 4.18933 13.2609 4.53867 13.0709L4.576 13.0522C4.85545 13.7189 5.24362 14.3346 5.72467 14.8742L5.71867 14.8675V14.8649ZM11.428 13.0515C11.8147 13.2615 12.146 13.4795 12.4573 13.7229L12.4413 13.7109C11.8089 14.2072 11.0971 14.5931 10.336 14.8522L10.2853 14.8675C10.7518 14.3402 11.1319 13.7424 11.4113 13.0962L11.428 13.0529V13.0515ZM15.228 7.61752H12.3873C12.3665 6.2382 12.1285 4.87077 11.682 3.56552L11.7093 3.65752C12.1802 3.40951 12.6261 3.11659 13.0407 2.78286L13.0247 2.79486C14.3409 4.05903 15.1279 5.77587 15.2267 7.59819L15.228 7.61752ZM2.97467 2.79552C3.35867 3.10752 3.79 3.39352 4.24733 3.63686L4.29067 3.65819C3.882 4.83619 3.636 6.19419 3.61267 7.60686V7.61752H0.771335C0.866866 5.78986 1.65355 4.06684 2.972 2.79752L2.97467 2.79552ZM0.772002 8.38019H3.61267C3.63352 9.75952 3.87154 11.1269 4.318 12.4322L4.29067 12.3402C3.79 12.6062 3.35934 12.8922 2.95934 13.2149L2.97533 13.2029C1.65911 11.9387 0.872056 10.2218 0.773336 8.39952L0.772669 8.38086L0.772002 8.38019Z" fill="#667185"/>
</svg>
